<?xml version="1.0" encoding="UTF-8"?>
<svg xmlns="http://www.w3.org/2000/svg" version="1.1" viewBox="0 0 595.28 595.28">
  <defs>
    <style>
      .cls-1 {
        fill: #007bff;
      }

      .cls-2 {
        fill: #fff;
      }
    </style>
  </defs>
  <!-- Generator: Adobe Illustrator 28.6.0, SVG Export Plug-In . SVG Version: 1.2.0 Build 709)  -->
  <g>
    <g id="Layer_1">
      <g>
        <circle class="cls-1" cx="297.9" cy="298.03" r="297.38"/>
        <g>
          <path class="cls-2" d="M528.3,221.65c-.03-13.48-7.38-23.73-20.06-28.07-7.97-2.73-15.94-5.43-23.97-7.94-3.17-.99-4.71-2.67-5.71-5.97-3.39-11.09-7.11-22.08-11.19-32.93-.9-2.41-3.47-4.82-5.87-5.95-6.94-3.28-14.03-6.29-21.19-9.04-.01,0-.02-.01-.03-.01-1.22-.47-2.44-.94-3.68-1.4-.02-.01-.03-.01-.06-.02-26.1-9.7-57.46-17.32-57.46-17.32-48.64-10.26-96.79-11.41-145.04-3.35-.12.02-.26.04-.38.07-38.76,7.28-62.13,15.5-72.26,19.58-.59.42-1.31.78-2.19,1.12-1.23.47-2.46.95-3.68,1.42-.05.02-.07.03-.07.03-7.46,2.92-14.84,6.04-22.13,9.35-1.95.88-3.98,2.96-4.7,4.95-4.09,11.24-7.65,22.68-11.75,33.92-.77,2.08-2.81,4.43-4.82,5.19-8.02,3.09-16.27,5.59-24.44,8.31-12.34,4.11-20.05,14.5-20.09,27.46-.08,24.55-.09,49.11,0,73.66.04,12.62,7.76,23.14,19.73,27.22,7.97,2.7,15.93,5.43,23.97,7.86,3.41,1.03,5.06,2.77,6.12,6.29,3.23,10.74,6.79,21.39,10.79,31.87,1.05,2.74,3.72,5.63,6.38,6.87,41.8,19.43,85.63,31.35,131.63,35.09,68.14,5.55,133.12-6.42,195.09-35.01,2.67-1.24,5.33-4.15,6.39-6.89,3.84-9.94,7.22-20.06,10.29-30.26,1.3-4.3,3.02-6.97,7.69-8.21,7.58-2.03,14.93-4.91,22.36-7.45,12.98-4.43,20.3-14.61,20.32-28.46.03-24,.04-47.98,0-71.98ZM437.2,340.34c-.78,2.24-3.14,4.68-5.35,5.58-88.85,36.07-177.82,36.05-266.88.63-3.85-1.53-5.8-3.83-7.1-7.71-18.15-54.25-18.19-108.41.18-162.61,1.19-3.53,2.96-5.57,6.4-6.96,42.8-17.41,87.19-26.71,133.18-26.58,46.17-.1,90.24,8.91,132.74,26.1,3.99,1.61,6.22,3.76,7.6,7.91,18.28,54.65,18.07,109.2-.77,163.64Z"/>
          <path class="cls-2" d="M322.14,306.26h-48.39c-7.66,0-13.87,6.21-13.87,13.87s6.21,13.87,13.87,13.87h48.39c7.66,0,13.87-6.21,13.87-13.87s-6.21-13.87-13.87-13.87Z"/>
          <path class="cls-2" d="M260.79,253.12l-26.09-59.89c-2.33-5.34-7.6-8.8-13.43-8.8s-11.1,3.45-13.43,8.8l-26.09,59.89c-3.23,7.42.16,16.05,7.58,19.28,7.42,3.23,16.05-.16,19.28-7.58l12.66-29.07,12.66,29.07c2.4,5.51,7.78,8.8,13.43,8.8,1.95,0,3.94-.39,5.84-1.22,7.42-3.23,10.81-11.86,7.58-19.28Z"/>
          <path class="cls-2" d="M386.49,193.23c-2.33-5.34-7.6-8.8-13.43-8.8s-11.1,3.45-13.43,8.8l-26.09,59.89c-3.23,7.42.16,16.05,7.58,19.28,7.42,3.23,16.05-.16,19.28-7.58l12.66-29.07,12.66,29.07c2.4,5.51,7.78,8.8,13.43,8.8,1.95,0,3.94-.39,5.84-1.22,7.42-3.23,10.81-11.86,7.58-19.28l-26.09-59.89Z"/>
          <path class="cls-2" d="M413.8,452.28h-233.27c-10.89,0-19.72,8.83-19.72,19.72s8.83,19.72,19.72,19.72h233.27c10.89,0,19.72-8.83,19.72-19.72s-8.83-19.72-19.72-19.72Z"/>
        </g>
      </g>
    </g>
  </g>
</svg>